<svg xmlns="http://www.w3.org/2000/svg" viewBox="0 0 512 512">
  <!-- Fond -->
  <rect width="512" height="512" rx="80" fill="#1a1a1a"/>

  <!-- Feuille de papier -->
  <rect x="120" y="96" width="272" height="340" rx="12" fill="#f5f5f5"/>

  <!-- Lignes de texte -->
  <rect x="152" y="160" width="180" height="14" rx="4" fill="#1a1a1a"/>
  <rect x="152" y="196" width="208" height="10" rx="3" fill="#999"/>
  <rect x="152" y="216" width="190" height="10" rx="3" fill="#999"/>
  <rect x="152" y="236" width="200" height="10" rx="3" fill="#999"/>
  <rect x="152" y="272" width="208" height="10" rx="3" fill="#999"/>
  <rect x="152" y="292" width="175" height="10" rx="3" fill="#999"/>
  <rect x="152" y="312" width="195" height="10" rx="3" fill="#999"/>

  <!-- Bandeau haut (running element) -->
  <rect x="120" y="96" width="272" height="28" rx="12" fill="#1a1a1a"/>
  <rect x="120" y="110" width="272" height="14" fill="#1a1a1a"/>
  <rect x="140" y="104" width="60" height="8" rx="2" fill="#f5f5f5" opacity="0.6"/>
  <rect x="340" y="104" width="36" height="8" rx="2" fill="#f5f5f5" opacity="0.4"/>

  <!-- Pied de page -->
  <rect x="152" y="390" width="140" height="8" rx="2" fill="#ccc"/>
  <rect x="316" y="390" width="36" height="8" rx="2" fill="#ccc"/>
</svg>
